<svg xmlns="http://www.w3.org/2000/svg" width="1440" viewBox="0 0 1440 810" height="810" version="1.0"><defs><clipPath id="a"><path d="M 342.316406 57 L 1080 57 L 1080 795.285156 L 342.316406 795.285156 Z M 342.316406 57"/></clipPath><clipPath id="b"><path d="M 491 14.535156 L 1097.566406 14.535156 L 1097.566406 639 L 491 639 Z M 491 14.535156"/></clipPath></defs><g clip-path="url(#a)"><path fill="#545454" d="M 711.195312 57.988281 C 508.039062 57.988281 342.632812 223.386719 342.632812 426.527344 C 342.632812 629.667969 508.039062 795.0625 711.195312 795.0625 C 914.351562 795.0625 1079.757812 629.667969 1079.757812 426.527344 C 1079.757812 338.703125 1050.039062 260.167969 999.570312 195.824219 L 964.867188 236.953125 C 1008.863281 291.121094 1026.082031 351.265625 1026.082031 426.527344 C 1026.082031 600.613281 885.289062 741.3125 711.191406 741.3125 C 537.09375 741.3125 396.300781 600.613281 396.300781 426.527344 C 396.300781 252.441406 537.09375 111.65625 711.191406 111.65625 C 766.359375 111.65625 807.621094 119.585938 852.667969 144.460938 L 885.636719 101.167969 C 832.894531 72.042969 775.566406 57.988281 711.195312 57.988281 Z M 711.195312 57.988281" fill-rule="evenodd"/></g><g clip-path="url(#b)"><path fill="#545454" d="M 574.785156 378.058594 C 589.648438 378.058594 600.890625 390.25 608.511719 414.636719 C 623.753906 460.363281 634.617188 483.226562 641.09375 483.226562 C 646.050781 483.226562 651.195312 479.417969 656.527344 471.796875 C 763.613281 300.324219 862.695312 161.617188 953.773438 55.6875 C 977.398438 28.25 1014.9375 14.535156 1066.382812 14.53125 C 1078.578125 14.535156 1086.769531 15.675781 1090.960938 17.960938 C 1095.152344 20.25 1097.25 23.105469 1097.25 26.535156 C 1097.25 31.871094 1090.960938 42.351562 1078.386719 57.972656 C 931.289062 234.785156 794.859375 421.5 669.105469 618.125 C 660.339844 631.839844 642.429688 638.699219 615.371094 638.699219 C 587.933594 638.699219 571.738281 637.558594 566.785156 635.269531 C 553.828125 629.554688 538.582031 600.40625 521.054688 547.816406 C 501.238281 489.515625 491.328125 452.933594 491.332031 438.074219 C 491.328125 422.070312 504.667969 406.636719 531.34375 391.773438 C 547.730469 382.628906 562.210938 378.054688 574.785156 378.054688"/></g></svg>